<svg xmlns="http://www.w3.org/2000/svg" width="100" height="100" viewBox="0 0 100 100" role="img" aria-label="아기용">
  <svg x="7" y="7" width="86" height="86" viewBox="0 0 120 120" preserveAspectRatio="xMidYMid meet">
<g stroke-linecap="round" stroke-linejoin="round"><path d="M24 43 35 12 48 42" fill="#71b66c" stroke="#315e34" stroke-width="5"/><path d="M72 42 85 12 96 43" fill="#71b66c" stroke="#315e34" stroke-width="5"/><ellipse cx="60" cy="65" rx="39" ry="36" fill="#71b66c" stroke="#315e34" stroke-width="5"/><circle cx="46" cy="59" r="4" fill="#20232a"/><circle cx="74" cy="59" r="4" fill="#20232a"/><ellipse cx="60" cy="72" rx="7" ry="5" fill="#315e34"/><path d="M52 82 Q60 88 68 82" fill="none" stroke="#315e34" stroke-width="4"/><path d="M23 68 7 54l6 30 17-4M97 68l16-14-6 30-17-4" fill="#8dd083" stroke="#315e34" stroke-width="4"/><path d="M53 23 60 7l7 16" fill="#f0d269" stroke="#80691c" stroke-width="4"/></g>
  </svg>
</svg>
