<svg xmlns="http://www.w3.org/2000/svg" viewBox="0 0 300 240" role="img" aria-label="티폰레고">
<defs><linearGradient id="g"><stop stop-color="#804450"/><stop offset="1" stop-color="#3d273a"/></linearGradient></defs>
<ellipse cx="150" cy="222" rx="126" ry="10" fill="#111827" opacity=".16"/>
<path d="M45 185 C16 146 37 115 66 115 C92 115 102 143 82 160 C61 178 67 198 89 205" fill="none" stroke="#563047" stroke-width="17" stroke-linecap="round"/>
<path d="M255 185 C284 146 263 115 234 115 C208 115 198 143 218 160 C239 178 233 198 211 205" fill="none" stroke="#563047" stroke-width="17" stroke-linecap="round"/>
<path d="M59 116 Q88 96 116 101 L184 101 Q212 96 241 116 L256 188 Q215 214 150 212 Q85 214 44 188Z" fill="url(#g)" stroke="#2a1828" stroke-width="9"/>
<rect x="111" y="38" width="78" height="70" rx="20" fill="#6f3a4a" stroke="#2a1828" stroke-width="8"/>
<rect x="132" y="23" width="36" height="19" rx="7" fill="#6f3a4a" stroke="#2a1828" stroke-width="5"/>
<circle cx="133" cy="68" r="7" fill="#f0c8ff"/><circle cx="167" cy="68" r="7" fill="#f0c8ff"/>
<circle cx="133" cy="68" r="2.8" fill="#2a1828"/><circle cx="167" cy="68" r="2.8" fill="#2a1828"/>
<path d="M130 88 Q150 101 170 88" fill="none" stroke="#2a1828" stroke-width="5" stroke-linecap="round"/>
<path d="M116 50 L91 12 L126 35 M184 50 L209 12 L174 35" fill="#a36b78" stroke="#2a1828" stroke-width="6"/>
<path d="M75 134 Q100 113 123 141 M177 141 Q200 113 225 134" fill="none" stroke="#ad7180" stroke-width="9" stroke-linecap="round"/>
<path d="M97 198 L81 221 M203 198 L219 221" stroke="#2a1828" stroke-width="18" stroke-linecap="round"/>
</svg>
