<svg xmlns="http://www.w3.org/2000/svg" viewBox="0 0 240 240" role="img" aria-label="보통레고">

<ellipse cx="120" cy="220" rx="42" ry="8" fill="#1a1a1a" opacity=".10"/>
<!-- intentionally cheap yellow toy-block family, stage 2 -->
<rect x="94" y="28" width="52" height="49" rx="8" fill="#ffd84d" stroke="#6d5812" stroke-width="5"/>
<rect x="105" y="19" width="30" height="13" rx="5" fill="#ffd84d" stroke="#6d5812" stroke-width="4"/>
<circle cx="108" cy="49" r="3.4" fill="#303030"/><circle cx="132" cy="49" r="3.4" fill="#303030"/>
<path d="M109 64 Q120 61 131 64" fill="none" stroke="#41350e" stroke-width="3.5" stroke-linecap="round"/>
<rect x="82.0" y="80" width="76" height="54" rx="12" fill="#f7c928" stroke="#6d5812" stroke-width="5"/>
<rect x="72.0" y="90" width="12" height="48.0" rx="6.0" fill="#ffd84d" stroke="#6d5812" stroke-width="5" transform="rotate(-10 82.0 96)"/>
<rect x="156.0" y="90" width="12" height="48.0" rx="6.0" fill="#ffd84d" stroke="#6d5812" stroke-width="5" transform="rotate(10 158.0 96)"/>
<circle cx="78.0" cy="151" r="8.0" fill="#ffd84d" stroke="#6d5812" stroke-width="4"/>
<circle cx="162.0" cy="151" r="8.0" fill="#ffd84d" stroke="#6d5812" stroke-width="4"/>
<rect x="105.0" y="132.0" width="10" height="50" rx="5" fill="#f2bd20" stroke="#6d5812" stroke-width="5"/>
<rect x="125.0" y="132.0" width="10" height="50" rx="5" fill="#f2bd20" stroke="#6d5812" stroke-width="5"/>

</svg>
