<svg xmlns="http://www.w3.org/2000/svg" viewBox="0 0 240 240" role="img" aria-label="침대파괴돼지레고">

<ellipse cx="120" cy="224" rx="103" ry="9" fill="#111" opacity=".10"/>
<path d="M17 199 L91 190 L120 217 L149 190 L223 199" fill="none" stroke="#8b5937" stroke-width="15" stroke-linejoin="round"/>
<path d="M27 191 L43 217 M211 191 L195 217" stroke="#5a3825" stroke-width="8"/>
<path d="M86 194 q-17 15 0 28 q17 12 3 23" fill="none" stroke="#8a8a91" stroke-width="5"/>
<path d="M151 192 q17 15 0 28 q-17 12-3 23" fill="none" stroke="#8a8a91" stroke-width="5"/>
<rect x="78" y="36" width="84" height="65" rx="18" fill="#ef9fa9" stroke="#713f50" stroke-width="7"/>
<rect x="104" y="24" width="32" height="15" rx="6" fill="#ef9fa9" stroke="#713f50" stroke-width="5"/>
<circle cx="103" cy="58" r="4"/><circle cx="137" cy="58" r="4"/><ellipse cx="120" cy="82" rx="28" ry="17" fill="#f6b9c0" stroke="#713f50" stroke-width="4"/>
<rect x="43" y="102" width="154" height="94" rx="33" fill="#8ab9dc" stroke="#3f6482" stroke-width="7"/>
<path d="M58 121 H182 M66 143 H174 M77 165 H163" stroke="#e4f3ff" stroke-width="5" opacity=".85"/>
<path d="M47 119 L24 141 L38 184 M193 119 L216 141 L202 184" stroke="#3f6482" stroke-width="20" stroke-linecap="round"/>
<path d="M18 174 Q35 157 53 174 Q35 187 18 174" fill="#fff7e8" stroke="#8f806d" stroke-width="4"/>

</svg>
